<?xml version="1.0"?>
<svg xmlns="http://www.w3.org/2000/svg" xmlns:xlink="http://www.w3.org/1999/xlink" xmlns:svgjs="http://svgjs.com/svgjs" version="1.1" width="512" height="512" x="0" y="0" viewBox="0 0 511 511.999" style="enable-background:new 0 0 512 512" xml:space="preserve" class=""><g><path xmlns="http://www.w3.org/2000/svg" d="m137.105469 414.339844-34.980469-5.070313-15.636719-31.601562c-2.265625-4.578125-6.851562-7.421875-11.964843-7.421875-5.117188 0-9.699219 2.84375-11.96875 7.421875l-15.636719 31.601562-34.976563 5.070313c-5.070312.734375-9.203125 4.214844-10.78125 9.082031-1.578125 4.863281-.28125 10.097656 3.386719 13.664063l25.296875 24.589843-5.96875 34.71875c-.867188 5.03125 1.160156 10.023438 5.292969 13.03125 2.34375 1.707031 5.085937 2.570313 7.847656 2.570313 2.121094 0 4.25-.507813 6.21875-1.539063l31.289063-16.40625 31.289062 16.40625c4.535156 2.378907 9.925781 1.980469 14.0625-1.03125 4.132812-3.007812 6.160156-8 5.296875-13.03125l-5.972656-34.71875 25.296875-24.589843c3.667968-3.566407 4.964844-8.800782 3.386718-13.664063-1.578124-4.867187-5.707031-8.347656-10.777343-9.082031zm-28.992188 37.199218c-3.152343 3.0625-4.589843 7.476563-3.84375 11.808594l5.550781 32.273438-29.09375-15.253906c-1.941406-1.015626-4.070312-1.523438-6.203124-1.523438-2.128907 0-4.261719.507812-6.203126 1.527344l-29.089843 15.25 5.546875-32.269532c.746094-4.332031-.6875-8.75-3.84375-11.8125l-23.492188-22.839843 32.484375-4.707031c4.347657-.628907 8.105469-3.355469 10.050781-7.289063l14.546876-29.394531 14.546874 29.398437c1.949219 3.929688 5.707032 6.65625 10.050782 7.285157l32.484375 4.707031zm0 0" fill="#f7c51e" data-original="#000000" style=""/><path xmlns="http://www.w3.org/2000/svg" d="m307.113281 414.339844-34.976562-5.070313-15.640625-31.597656c-2.265625-4.582031-6.851563-7.425781-11.964844-7.425781-5.117188 0-9.699219 2.84375-11.96875 7.421875l-15.636719 31.601562-34.976562 5.070313c-5.070313.734375-9.203125 4.214844-10.78125 9.082031-1.578125 4.863281-.28125 10.097656 3.386719 13.664063l25.296874 24.589843-5.96875 34.71875c-.867187 5.03125 1.164063 10.027344 5.292969 13.035157 2.34375 1.703124 5.085938 2.570312 7.847657 2.570312 2.121093 0 4.25-.511719 6.21875-1.542969l31.289062-16.40625 31.285156 16.40625c4.539063 2.378907 9.929688 1.980469 14.066406-1.03125 4.132813-3.003906 6.160157-8 5.296876-13.03125l-5.972657-34.71875 25.296875-24.589843c3.667969-3.566407 4.964844-8.800782 3.390625-13.664063-1.582031-4.867187-5.710937-8.347656-10.78125-9.082031zm-64.058593-30.015625c-.003907 0 0 0 0 0zm35.066406 67.210937c-3.152344 3.0625-4.589844 7.480469-3.847656 11.8125l5.550781 32.273438-29.089844-15.253906c-1.941406-1.015626-4.070313-1.523438-6.203125-1.523438-2.128906 0-4.261719.507812-6.203125 1.527344l-29.09375 15.25 5.554687-32.273438c.742188-4.332031-.695312-8.746094-3.847656-11.808594l-23.492187-22.839843 32.484375-4.707031c4.347656-.628907 8.105468-3.355469 10.050781-7.289063l14.546875-29.394531 14.546875 29.394531c1.945313 3.933594 5.703125 6.660156 10.050781 7.289063l32.484375 4.707031zm0 0" fill="#f7c51e" data-original="#000000" style=""/><path xmlns="http://www.w3.org/2000/svg" d="m488.808594 423.421875c-1.578125-4.867187-5.710938-8.347656-10.78125-9.082031l-34.976563-5.070313-15.636719-31.597656c-2.269531-4.582031-6.855468-7.425781-11.96875-7.425781-5.113281 0-9.699218 2.84375-11.964843 7.421875l-15.640625 31.601562-34.976563 5.070313c-5.070312.734375-9.203125 4.214844-10.78125 9.082031-1.578125 4.863281-.277343 10.097656 3.390625 13.664063l25.296875 24.589843-5.972656 34.71875c-.863281 5.03125 1.164063 10.027344 5.292969 13.035157 2.347656 1.703124 5.085937 2.570312 7.851562 2.570312 2.117188 0 4.246094-.511719 6.214844-1.542969l31.289062-16.40625 31.289063 16.40625c4.535156 2.378907 9.921875 1.980469 14.0625-1.03125 4.132813-3.003906 6.160156-8 5.296875-13.03125-.703125-4.082031-4.570312-6.820312-8.664062-6.121093-3.0625.527343-5.371094 2.839843-6.035157 5.691406l-29.746093-15.597656c-3.882813-2.035157-8.519532-2.035157-12.40625 0l-29.089844 15.25 5.550781-32.273438c.742187-4.332031-.695313-8.746094-3.847656-11.808594l-23.492188-22.835937 32.484375-4.707031c4.347656-.628907 8.105469-3.355469 10.050782-7.289063l14.546874-29.394531 14.546876 29.394531c1.945312 3.933594 5.707031 6.660156 10.050781 7.289063l32.488281 4.707031-23.492188 22.835937c-3.152343 3.0625-4.59375 7.480469-3.847656 11.8125l1.820313 10.597656c.703125 4.082032 4.582031 6.824219 8.664062 6.121094s6.824219-4.582031 6.121094-8.664062l-1.671875-9.722656 25.296875-24.59375c3.667969-3.566407 4.964844-8.800782 3.386719-13.664063zm0 0" fill="#f7c51e" data-original="#000000" style=""/><path xmlns="http://www.w3.org/2000/svg" d="m244.53125 329.742188c39.390625 0 75.597656-13.820313 104.027344-36.84375.660156-.390626 1.25-.875 1.757812-1.4375 36.347656-30.269532 59.515625-75.777344 59.515625-126.589844.003907-90.910156-74.152343-164.871094-165.300781-164.871094s-165.304688 73.960938-165.304688 164.871094 74.15625 164.871094 165.304688 164.871094zm0-314.742188c82.878906 0 150.304688 67.230469 150.304688 149.871094 0 42.25-17.628907 80.464844-45.929688 107.734375-6.519531-17.667969-20.683594-31.609375-39.082031-37.773438l-18.054688-6.054687c-3.296875-1.097656-6.300781-2.964844-8.699219-5.417969-.0625-.070313-.128906-.132813-.195312-.203125-.042969-.042969-.082031-.085938-.125-.128906-.019531-.019532-.039062-.042969-.058594-.0625-3.828125-4.089844-5.933594-9.425782-5.933594-15.046875v-21.007813l7.539063-4.574218c9.890625-6.007813 16.035156-16.917969 16.035156-28.476563v-31.921875c0-.019531 0-.039062 0-.058594v-27.789062c0-20.546875-16.75-37.261719-37.335937-37.261719h-36.9375c-20.589844 0-37.339844 16.714844-37.339844 37.261719v24.007812.019532 35.738281c0 11.558593 6.148438 22.472656 16.039062 28.476562l7.554688 4.585938v21c0 6.042969-2.527344 11.875-6.9375 16.03125-.042969.039062-.082031.082031-.125.121093-2.28125 2.117188-4.96875 3.699219-7.980469 4.710938l-18.039062 6.050781c-6.933594 2.328125-13.351563 5.800781-19.089844 10.324219-3.097656 2.453125-5.980469 5.214844-8.570313 8.203125-2.710937 3.132813-2.367187 7.871094.765626 10.582031 1.417968 1.226563 3.164062 1.828125 4.902343 1.828125 2.101563 0 4.191407-.878906 5.675781-2.589843 1.972657-2.28125 4.171876-4.390626 6.527344-6.25 4.371094-3.449219 9.273438-6.101563 14.5625-7.878907l18.035156-6.046875c3.554688-1.191406 6.84375-2.882812 9.828126-5.023437 9.875 3.113281 20.085937 4.6875 30.4375 4.6875.730468 0 1.457031-.011719 2.1875-.023438 10.695312-.234375 21.21875-2.140625 31.347656-5.679687 3.335937 2.628906 7.128906 4.695312 11.179687 6.039062l18.035157 6.050782c15.886718 5.320312 27.617187 18.246093 31.445312 34.273437-25.4375 19.679687-57.351562 31.414063-91.96875 31.414063-82.878906 0-150.304688-67.230469-150.304688-149.871094s67.425782-149.871094 150.304688-149.871094zm40.804688 96.570312-54.285157-17.402343c-1.902343-.605469-3.972656-.433594-5.75.488281l-21.578125 11.222656v-11.789062c0-12.273438 10.019532-22.261719 22.335938-22.261719h36.9375c12.316406 0 22.339844 9.988281 22.339844 22.261719zm-81.617188 11.214844 25.730469-13.375 55.886719 17.914063v26.535156c0 6.351563-3.382813 12.347656-8.824219 15.652344l-22.410157 13.605469c-5.90625 3.585937-13.242187 3.585937-19.144531 0l-22.410156-13.605469c-5.441406-3.300781-8.824219-9.300781-8.824219-15.652344v-31.074219zm23.59375 85.132813v-11.898438c5.320312 3.191407 11.265625 4.792969 17.214844 4.792969 5.957031 0 11.910156-1.601562 17.230468-4.804688v11.910157c0 5.8125 1.351563 11.441406 3.882813 16.515625-7.003906 1.960937-14.191406 3.054687-21.46875 3.210937-7.191406.160157-14.320313-.601562-21.292969-2.214843 2.871094-5.34375 4.433594-11.363282 4.433594-17.511719zm0 0" fill="#f7c51e" data-original="#000000" style=""/></g></svg>
